<svg width="23" height="16" viewBox="0 0 23 16" fill="none" xmlns="http://www.w3.org/2000/svg">
<path d="M18.7916 2.29159H10.4583V9.58325H2.12496V0.208252H0.041626V15.8333H2.12496V12.7083H20.875V15.8333H22.9583V6.45825C22.9583 5.35318 22.5193 4.29338 21.7379 3.51197C20.9565 2.73057 19.8967 2.29159 18.7916 2.29159ZM6.29163 8.54158C7.12043 8.54158 7.91528 8.21235 8.50134 7.62629C9.08739 7.04024 9.41663 6.24539 9.41663 5.41658C9.41663 4.58778 9.08739 3.79293 8.50134 3.20688C7.91528 2.62083 7.12043 2.29159 6.29163 2.29159C5.46282 2.29159 4.66797 2.62083 4.08192 3.20688C3.49587 3.79293 3.16663 4.58778 3.16663 5.41658C3.16663 6.24539 3.49587 7.04024 4.08192 7.62629C4.66797 8.21235 5.46282 8.54158 6.29163 8.54158Z" fill="black"/>
</svg>
