<svg width="21" height="20" viewBox="0 0 21 20" fill="none" xmlns="http://www.w3.org/2000/svg">
<path d="M8.15632 5.75C8.30632 4.5875 8.55632 3.55625 8.87382 2.72875C9.14007 2.03625 9.44257 1.5175 9.74632 1.18375C10.0501 0.85 10.3051 0.75 10.5001 0.75C10.6951 0.75 10.9501 0.85 11.2538 1.18375C11.5576 1.5175 11.8601 2.03625 12.1263 2.72875C12.4451 3.55625 12.6951 4.5875 12.8438 5.75H8.15632ZM7.70632 2.28C7.87507 1.84375 8.06507 1.44 8.27882 1.08375C7.163 1.43094 6.14347 2.03345 5.30115 2.84344C4.45882 3.65343 3.8169 4.64862 3.42632 5.75H6.89632C7.05382 4.4375 7.33382 3.25125 7.70757 2.28H7.70632ZM13.2938 2.28C13.1376 1.86558 12.9461 1.46535 12.7213 1.08375C13.8371 1.43094 14.8567 2.03345 15.699 2.84344C16.5413 3.65343 17.1832 4.64862 17.5738 5.75H14.1038C13.9463 4.4375 13.6663 3.25125 13.2926 2.28H13.2938ZM14.2126 7H17.8951C18.0341 7.82753 18.0341 8.67246 17.8951 9.5H14.2126C14.2607 8.66736 14.2607 7.83264 14.2126 7ZM14.1026 10.75H17.5726C17.182 11.8514 16.5401 12.8466 15.6977 13.6566C14.8554 14.4665 13.8359 15.0691 12.7201 15.4162C12.9326 15.06 13.1238 14.6562 13.2913 14.22C13.6663 13.2487 13.9451 12.0625 14.1038 10.75H14.1026ZM11.2526 15.3162C10.9488 15.65 10.6938 15.75 10.4988 15.75C10.3038 15.75 10.0488 15.65 9.74507 15.3162C9.44132 14.9825 9.13882 14.4637 8.87257 13.7712C8.55382 12.9437 8.30382 11.9137 8.15507 10.75H12.8426C12.6926 11.9125 12.4426 12.9437 12.1251 13.7712C11.8588 14.4637 11.5563 14.9825 11.2526 15.3162ZM3.42632 10.75C3.8169 11.8514 4.45882 12.8466 5.30115 13.6566C6.14347 14.4665 7.163 15.0691 8.27882 15.4162C8.05448 15.0346 7.86336 14.6344 7.70757 14.22C7.33257 13.2487 7.05382 12.0625 6.89507 10.75H3.42757H3.42632ZM6.78632 9.5H3.10382C2.96489 8.67246 2.96489 7.82754 3.10382 7H6.78632C6.73838 7.83264 6.73838 8.66735 6.78632 9.5ZM8.03757 7C7.98659 7.83255 7.98659 8.66745 8.03757 9.5H12.9626C13.0135 8.66744 13.0135 7.83255 12.9626 7H8.03757ZM2.37507 13.25H3.31882C3.62882 13.695 3.98007 14.11 4.36507 14.49C4.32713 14.4969 4.28863 14.5002 4.25007 14.5H2.86257L1.92507 18.25H19.0751L18.1376 14.5H16.7501C16.7115 14.5002 16.673 14.4969 16.6351 14.49C17.0213 14.1098 17.3715 13.6947 17.6813 13.25H18.6251C18.7645 13.25 18.8999 13.2967 19.0097 13.3825C19.1196 13.4684 19.1976 13.5885 19.2313 13.7237L20.4813 18.7237C20.5043 18.8159 20.506 18.912 20.4863 19.0049C20.4665 19.0977 20.4259 19.1849 20.3675 19.2597C20.309 19.3345 20.2343 19.395 20.149 19.4367C20.0637 19.4783 19.97 19.5 19.8751 19.5H1.12507C1.03014 19.5 0.936453 19.4783 0.851134 19.4367C0.765816 19.395 0.691104 19.3345 0.632669 19.2597C0.574234 19.1849 0.533611 19.0977 0.513885 19.0049C0.494159 18.912 0.495847 18.8159 0.518822 18.7237L1.76882 13.7237C1.80256 13.5885 1.88056 13.4684 1.99041 13.3825C2.10026 13.2967 2.23566 13.25 2.37507 13.25Z" fill="black"/>
</svg>
